<svg width="64" height="64" viewBox="0 0 64 64" fill="none" xmlns="http://www.w3.org/2000/svg">
  <rect width="64" height="64" rx="18" fill="#16253A"/>
  <path d="M29.2472 24.2286C28.7526 23.5924 28.1164 23.1096 27.338 22.78C26.5595 22.4387 25.6869 22.2681 24.7203 22.2681C23.7888 22.2681 22.939 22.4444 22.1719 22.797C21.4048 23.1379 20.7431 23.6208 20.1868 24.2457C19.6305 24.8705 19.1988 25.6186 18.8917 26.4898C18.596 27.3609 18.4481 28.3232 18.4481 29.3767C18.4481 30.453 18.596 31.4266 18.8917 32.2978C19.1988 33.1689 19.6248 33.917 20.1698 34.5419C20.7261 35.1667 21.382 35.6496 22.1378 35.9905C22.905 36.3314 23.7548 36.5019 24.6876 36.5019C25.6652 36.5019 26.5557 36.3086 27.3593 35.9219C28.1629 35.5239 28.8287 34.9619 29.3567 34.2358L33.6039 37.4106C32.625 38.7826 31.3823 39.8028 29.8758 40.4712C28.3694 41.1397 26.8174 41.4739 25.2198 41.4739C23.0868 41.4739 21.1244 41.1443 19.3327 40.4851C17.541 39.826 15.9936 38.8905 14.6904 37.6787C13.3873 36.467 12.3684 34.9984 11.6337 33.273C10.899 31.5477 10.5316 29.5822 10.5316 27.3767C10.5316 25.1712 10.899 23.2058 11.6337 21.4804C12.3684 19.7551 13.3873 18.2864 14.6904 17.0747C15.9936 15.863 17.541 14.9274 19.3327 14.2683C21.1244 13.6091 23.0868 13.2795 25.2198 13.2795C25.8757 13.2795 26.5595 13.342 27.2718 13.467C27.9956 13.5807 28.7135 13.7683 29.4258 14.0298C30.1382 14.2798 30.8278 14.6263 31.4949 15.0693C32.1621 15.5124 32.7586 16.0744 33.284 16.7551L29.2472 24.2286Z" fill="white"/>
  <path d="M36.4994 14.0469H53.6066V19.0189H41.8388V24.2457H52.7239V29.2178H41.8388V40.7066H36.4994V14.0469Z" fill="white"/>
</svg>
